<svg xmlns="http://www.w3.org/2000/svg" xmlns:xlink="http://www.w3.org/1999/xlink" width="15" height="15" viewBox="0 0 15 15"><defs><clipPath id="b"><rect width="15" height="15"/></clipPath></defs><g id="a" clip-path="url(#b)"><rect width="15" height="15" transform="translate(15) rotate(90)" fill="#fff" opacity="0"/><g transform="translate(57.045 48.173)"><path d="M12.211.245c-.017-.018-.036-.038-.055-.056s-.042-.033-.063-.051a.76.76,0,0,0-1,.114L4.018,8.195.473,4.272.33,4.435A1.341,1.341,0,0,0,.33,6.2l.143.161s2.118,2.415,2.9,3.251c.058.061.253.227.253.227a.755.755,0,0,0,.767.1.725.725,0,0,0,.264-.188l7.565-8.495a.757.757,0,0,0-.006-1.01Z" transform="translate(-56.045 -45.173)" fill="#ffffff"/></g></g></svg>